<?xml version="1.0" standalone="no"?>
<!DOCTYPE svg PUBLIC "-//W3C//DTD SVG 20010904//EN"
 "http://www.w3.org/TR/2001/REC-SVG-20010904/DTD/svg10.dtd">
<svg version="1.0" xmlns="http://www.w3.org/2000/svg"
 width="1036.000000pt" height="1036.000000pt" viewBox="0 0 1036.000000 1036.000000"
 preserveAspectRatio="xMidYMid meet">
<metadata>
Created by potrace 1.14, written by Peter Selinger 2001-2017
</metadata>
<g transform="translate(0.000000,1036.000000) scale(0.100000,-0.100000)"
fill="#000000" stroke="none">
<path d="M4898 10335 c-2 -2 -48 -6 -103 -10 -112 -7 -136 -9 -221 -19 -103
-12 -138 -17 -194 -26 -30 -5 -71 -12 -90 -15 -47 -8 -201 -36 -220 -41 -8 -2
-35 -8 -60 -15 -25 -6 -56 -13 -70 -15 -84 -15 -529 -152 -595 -183 -11 -6
-51 -22 -90 -36 -38 -14 -83 -32 -100 -39 -16 -8 -52 -24 -80 -36 -114 -51
-320 -153 -326 -162 -3 -5 -10 -10 -15 -10 -14 -1 -58 -21 -74 -34 -8 -6 -37
-24 -65 -38 -56 -30 -61 -33 -160 -95 -87 -55 -148 -96 -246 -163 -65 -46 -93
-66 -144 -105 -59 -46 -102 -80 -112 -88 -7 -5 -18 -14 -25 -20 -13 -10 -116
-97 -172 -145 -47 -41 -247 -232 -280 -269 -17 -19 -59 -62 -92 -97 -34 -35
-60 -64 -57 -64 2 0 -6 -11 -19 -24 -13 -13 -43 -47 -68 -76 -25 -29 -53 -62
-62 -72 -10 -10 -18 -21 -18 -25 0 -5 -13 -21 -28 -38 -79 -86 -362 -495 -362
-524 0 -6 -4 -11 -10 -11 -5 0 -10 -4 -10 -10 0 -5 -19 -40 -42 -77 -48 -80
-190 -356 -237 -463 -18 -41 -36 -84 -41 -95 -33 -71 -117 -291 -125 -325 -2
-8 -11 -35 -20 -60 -17 -45 -72 -228 -80 -264 -2 -10 -11 -42 -19 -70 -8 -28
-17 -62 -20 -76 -3 -14 -16 -74 -29 -135 -13 -60 -30 -139 -36 -175 -6 -36
-13 -74 -15 -86 -6 -32 -19 -126 -21 -154 -1 -14 -5 -43 -9 -65 -3 -22 -8 -67
-11 -100 -2 -33 -8 -100 -12 -150 -4 -49 -7 -209 -7 -355 0 -297 7 -422 34
-630 6 -42 13 -94 15 -115 3 -22 10 -66 15 -97 6 -32 15 -86 20 -120 6 -35 20
-101 31 -148 11 -47 27 -114 35 -150 9 -36 20 -76 25 -90 5 -14 10 -34 12 -45
16 -91 167 -516 242 -680 15 -33 27 -61 27 -62 -3 -6 189 -376 208 -403 11
-16 26 -43 31 -60 6 -16 14 -30 18 -30 5 0 16 -18 26 -40 10 -22 21 -40 25
-40 4 0 10 -8 14 -17 5 -17 73 -124 109 -176 9 -12 48 -66 87 -120 38 -54 81
-110 95 -125 14 -15 25 -30 25 -34 0 -3 6 -13 12 -20 7 -7 29 -33 49 -58 39
-48 52 -63 132 -154 120 -138 373 -391 455 -456 11 -8 47 -39 80 -68 33 -29
82 -69 109 -90 26 -20 57 -45 68 -54 11 -10 44 -35 75 -56 30 -20 62 -45 71
-54 9 -10 21 -18 26 -18 5 0 18 -8 29 -18 19 -17 112 -82 118 -82 2 0 41 -25
87 -56 46 -30 99 -62 119 -72 19 -9 37 -19 40 -22 3 -4 32 -22 65 -40 33 -18
74 -41 91 -50 51 -29 99 -54 104 -55 3 0 43 -19 90 -42 191 -92 507 -222 583
-239 4 -1 9 -3 12 -4 3 -1 8 -3 13 -5 4 -1 14 -4 22 -8 17 -6 91 -30 103 -33
4 -1 8 -2 10 -4 1 -1 9 -3 17 -5 8 -1 35 -8 60 -15 25 -7 50 -13 55 -14 6 -1
15 -4 20 -7 9 -6 65 -20 133 -34 12 -3 30 -7 40 -9 139 -35 428 -86 577 -101
33 -3 74 -8 90 -10 214 -27 873 -27 1050 0 17 2 55 7 85 10 30 3 69 7 85 10
17 2 48 7 70 9 41 5 290 50 335 60 14 4 36 8 50 11 32 6 235 58 330 86 25 7
47 13 50 14 27 7 211 69 265 90 39 15 75 28 80 29 6 1 27 10 49 19 21 9 40 17
42 17 2 0 29 12 61 26 32 14 67 29 78 34 11 4 54 24 96 44 42 20 81 36 87 36
6 0 12 3 14 8 2 4 39 25 83 47 143 71 401 223 516 304 20 14 47 33 60 41 49
33 224 165 227 172 2 4 9 8 16 8 6 0 19 8 27 17 23 26 72 63 83 63 5 0 6 3 2
7 -3 4 2 12 12 17 40 22 165 135 335 304 89 87 139 147 108 128 -6 -4 -11 -4
-11 -1 0 9 24 39 96 121 67 77 141 164 152 179 20 28 77 101 82 105 4 3 28 37
55 75 27 39 52 72 55 75 11 11 166 250 222 345 91 152 208 381 277 540 72 165
86 199 87 205 0 3 4 14 9 25 42 102 147 419 159 479 2 6 7 29 13 51 9 34 19
75 59 246 25 104 79 456 89 579 27 307 27 741 0 1010 -16 159 -67 478 -95 595
-10 44 -24 103 -30 130 -13 57 -15 62 -34 130 -8 28 -22 77 -31 110 -8 33 -25
85 -36 115 -11 30 -27 77 -36 104 -16 55 -114 305 -145 376 -40 88 -199 406
-224 445 -13 22 -27 47 -31 55 -4 8 -24 43 -45 78 -21 34 -38 65 -38 68 0 2
-5 10 -11 17 -5 7 -40 57 -76 112 -36 55 -71 103 -77 107 -6 4 -7 8 -1 8 6 0
6 3 0 8 -6 4 -35 41 -65 82 -29 41 -59 80 -64 87 -6 6 -22 26 -36 44 -14 18
-31 38 -37 45 -7 7 -13 17 -13 22 0 6 -3 12 -7 14 -5 2 -33 32 -63 68 -69 81
-108 125 -187 209 -35 36 -63 70 -63 74 0 5 -4 5 -10 2 -5 -3 -10 -1 -10 4 0
10 -74 84 -184 182 -26 24 -63 58 -81 74 -50 46 -136 119 -153 129 -8 4 -22
16 -31 25 -9 9 -61 49 -116 90 -55 41 -117 87 -137 103 -20 15 -41 28 -47 28
-5 0 -11 3 -13 8 -3 7 -95 72 -103 72 -2 0 -36 22 -77 48 -40 27 -100 63 -133
81 -33 18 -64 37 -70 41 -10 8 -381 199 -390 200 -3 1 -22 8 -42 17 -21 9 -41
16 -45 15 -5 -1 -8 2 -8 8 0 5 -6 10 -12 10 -7 0 -58 19 -113 41 -176 72 -434
157 -625 205 -54 14 -71 18 -118 28 -13 3 -32 8 -42 11 -26 8 -56 14 -235 46
-60 11 -126 22 -145 24 -19 2 -60 7 -90 11 -30 4 -62 8 -70 9 -8 1 -51 5 -95
9 -44 4 -98 10 -120 12 -43 6 -632 13 -637 9z"/>
</g>
</svg>
